<?xml version="1.0" standalone="no"?>
<!DOCTYPE svg PUBLIC "-//W3C//DTD SVG 20010904//EN"
 "http://www.w3.org/TR/2001/REC-SVG-20010904/DTD/svg10.dtd">
<svg version="1.0" xmlns="http://www.w3.org/2000/svg"
 width="700.000000pt" height="700.000000pt" viewBox="0 0 700.000000 700.000000"
 preserveAspectRatio="xMidYMid meet">
<metadata>
Created by potrace 1.14, written by Peter Selinger 2001-2017
</metadata>
<g transform="translate(0.000000,700.000000) scale(0.100000,-0.100000)"
fill="#000000" stroke="none">
<path d="M3740 6974 c-189 -28 -301 -60 -446 -128 -397 -188 -659 -574 -711
-1052 -13 -117 -7 -371 11 -494 64 -428 227 -832 501 -1240 43 -63 81 -117 84
-120 4 -3 18 -21 31 -40 13 -19 27 -37 30 -40 3 -3 21 -25 39 -49 106 -135
326 -361 469 -480 66 -55 80 -77 34 -51 -66 36 -463 141 -627 164 -22 4 -51 8
-65 11 -40 7 -89 13 -175 22 -103 10 -587 10 -685 0 -41 -4 -93 -10 -114 -12
-22 -2 -55 -7 -75 -10 -20 -4 -51 -8 -69 -11 -19 -2 -86 -16 -150 -30 -65 -14
-127 -27 -139 -30 -65 -13 -298 -89 -400 -129 -137 -55 -314 -141 -428 -210
-200 -121 -447 -334 -555 -480 -25 -33 -48 -62 -51 -65 -22 -18 -126 -212
-158 -295 -70 -179 -91 -295 -86 -480 7 -260 79 -482 234 -714 54 -81 183
-233 252 -297 359 -328 888 -568 1454 -660 22 -3 47 -8 55 -9 8 -2 40 -6 70
-10 30 -3 69 -8 85 -10 174 -24 644 -24 825 0 19 2 55 7 80 10 38 5 179 28
245 40 11 2 43 9 70 15 28 6 58 13 67 15 51 11 220 60 296 86 508 177 933 478
1159 821 65 99 67 103 104 178 131 270 166 537 103 805 -59 256 -180 483 -359
673 -48 50 -85 92 -82 92 2 0 29 -11 58 -24 121 -53 334 -113 499 -140 165
-28 210 -31 410 -30 175 1 207 4 314 28 398 92 672 281 859 592 79 132 141
307 173 489 25 142 25 427 0 600 -73 501 -337 1055 -721 1510 -276 327 -592
595 -958 809 -185 109 -456 229 -632 281 -33 10 -78 23 -100 30 -41 13 -180
43 -280 60 -126 22 -426 27 -545 9z m445 -228 c17 -3 49 -8 72 -10 254 -32
663 -184 927 -344 37 -23 70 -42 72 -42 3 0 69 -44 178 -120 337 -233 679
-596 910 -965 131 -208 282 -537 327 -710 4 -16 17 -66 28 -110 77 -298 84
-606 20 -850 -23 -88 -57 -183 -68 -190 -16 -9 -281 353 -281 385 0 5 -4 10
-10 10 -5 0 -10 5 -10 11 0 26 -171 278 -289 423 -113 141 -310 342 -492 502
-131 115 -325 247 -574 389 -93 53 -184 108 -202 121 -17 13 -34 24 -37 24 -9
0 -168 121 -256 196 -131 110 -360 343 -456 462 -88 109 -194 265 -323 475
-40 65 -100 154 -132 198 -33 44 -57 84 -54 88 2 5 15 11 27 14 135 30 181 39
228 44 30 3 56 7 58 8 5 5 307 -3 337 -9z m-713 -390 c46 -68 112 -173 148
-231 131 -215 279 -402 459 -583 149 -149 328 -312 370 -336 8 -5 25 -18 36
-29 36 -34 298 -203 415 -267 291 -161 479 -303 735 -556 222 -220 323 -349
519 -663 132 -211 225 -343 314 -445 l52 -59 -19 -26 c-24 -33 -107 -111 -144
-136 -32 -21 -26 -26 -131 110 -84 108 -135 183 -241 355 -174 284 -295 440
-500 645 -143 142 -229 221 -315 290 -41 33 -77 63 -80 66 -20 23 -255 174
-395 254 -348 198 -496 311 -784 595 -191 189 -306 335 -476 610 -130 208
-176 276 -266 391 l-68 87 42 39 c23 21 68 58 101 81 l58 41 44 -53 c24 -30
81 -111 126 -180z m-434 -228 c38 -51 121 -176 184 -278 101 -164 209 -325
227 -340 3 -3 19 -23 36 -45 16 -22 31 -42 34 -45 4 -3 33 -36 66 -75 33 -38
101 -110 150 -160 297 -296 478 -434 840 -640 284 -162 467 -300 700 -531 222
-220 338 -365 495 -619 138 -224 221 -345 324 -472 l26 -31 -56 -21 c-121 -46
-280 -72 -444 -74 -137 -1 -253 9 -375 33 -27 6 -60 12 -72 15 -141 26 -396
117 -578 206 -334 162 -610 362 -895 648 -216 217 -386 433 -528 671 -44 74
-152 289 -185 370 -32 76 -96 256 -101 284 -2 6 -8 29 -14 51 -6 22 -13 51
-16 65 -2 14 -11 59 -19 100 -24 120 -29 167 -32 310 -3 148 10 279 36 385 27
107 101 285 118 285 5 0 41 -42 79 -92z m-163 -2882 c33 -3 78 -8 100 -11 22
-3 60 -8 85 -11 72 -9 247 -43 334 -65 665 -168 1171 -513 1391 -949 42 -83
88 -209 77 -211 -29 -5 -201 23 -324 52 -94 22 -117 28 -173 44 -139 38 -279
65 -461 90 -103 14 -228 20 -449 20 -279 0 -397 -9 -570 -41 -10 -2 -35 -6
-55 -9 -57 -8 -65 -10 -260 -60 -102 -26 -194 -49 -205 -51 -169 -33 -215 -41
-290 -50 -222 -24 -624 -24 -815 1 -126 17 -292 50 -445 90 -203 52 -299 72
-425 90 -25 4 -46 8 -48 9 -7 8 26 71 84 158 228 343 643 617 1176 778 75 22
146 43 159 45 13 3 67 14 121 25 86 18 143 27 278 45 19 3 78 8 130 11 52 4
96 8 98 9 5 5 423 -4 487 -9z m865 -1281 c100 -7 102 -7 190 -19 127 -17 192
-31 425 -91 99 -25 196 -48 215 -51 19 -3 55 -10 79 -15 24 -5 69 -12 100 -16
31 -3 63 -7 71 -9 8 -1 30 -3 48 -3 l32 -1 -1 -62 c0 -35 -6 -88 -12 -118 -12
-53 -13 -55 -42 -52 -80 8 -276 47 -417 83 -180 46 -164 42 -293 69 -54 11
-119 23 -145 26 -25 3 -56 7 -70 9 -158 28 -777 28 -915 1 -11 -2 -42 -7 -70
-10 -85 -12 -241 -45 -419 -91 -225 -57 -356 -81 -569 -100 -78 -7 -494 -8
-547 -1 -19 2 -64 7 -100 11 -129 13 -259 38 -491 95 -130 32 -256 62 -280 65
-24 4 -62 10 -84 15 -22 5 -71 12 -110 16 -38 3 -77 8 -85 9 -11 1 -15 15 -14
56 1 85 14 169 27 170 55 5 233 -28 467 -86 118 -30 231 -57 250 -60 19 -3 42
-8 50 -10 8 -2 35 -7 60 -10 25 -3 52 -8 60 -10 8 -2 44 -7 80 -10 36 -4 74
-9 85 -12 37 -9 579 -11 665 -3 134 13 193 20 220 25 14 3 41 7 60 10 82 14
196 39 355 80 94 25 184 47 200 49 17 3 53 10 82 15 29 6 74 13 100 16 26 4
59 8 73 11 14 2 75 7 135 10 61 4 111 7 112 8 5 4 338 -2 423 -9z m60 -469
c25 -4 63 -9 85 -11 107 -13 249 -42 445 -90 118 -30 228 -56 244 -59 16 -3
52 -10 80 -15 28 -6 68 -12 89 -14 21 -3 41 -7 44 -10 10 -10 -65 -132 -136
-223 -108 -139 -252 -270 -411 -376 -88 -58 -271 -159 -350 -192 -25 -11 -63
-27 -86 -37 -54 -24 -295 -106 -331 -113 -15 -3 -84 -19 -153 -35 -69 -16
-143 -32 -165 -35 -124 -20 -167 -25 -230 -31 -38 -3 -97 -8 -130 -11 -79 -8
-357 -7 -465 1 -1029 76 -1858 570 -2055 1224 -6 21 -5 23 22 17 15 -3 48 -8
73 -11 82 -11 243 -46 395 -85 351 -91 538 -114 915 -113 390 0 593 29 995
137 122 33 293 63 450 79 131 14 584 16 675 3z"/>
<path d="M3143 5376 c-41 -19 -67 -60 -67 -105 1 -43 31 -165 50 -203 39 -76
159 -74 199 2 18 34 19 71 5 120 -6 19 -13 51 -16 70 -16 98 -93 150 -171 116z"/>
<path d="M3328 4814 c-32 -17 -58 -62 -58 -100 0 -69 204 -403 379 -619 105
-130 284 -308 457 -455 163 -139 443 -314 656 -410 162 -74 376 -144 498 -165
19 -3 42 -8 50 -10 21 -5 104 -16 168 -20 83 -7 133 28 146 99 7 37 -16 90
-46 110 -24 15 -45 20 -148 31 -30 3 -62 7 -70 9 -71 13 -139 29 -160 35 -14
5 -45 14 -70 21 -159 46 -411 163 -595 279 -420 264 -807 681 -1021 1101 -52
102 -114 134 -186 94z"/>
<path d="M4015 1112 c-128 -89 -308 -184 -449 -237 -98 -36 -314 -99 -377
-109 -19 -3 -59 -10 -89 -16 -30 -6 -77 -13 -105 -16 -27 -4 -53 -8 -56 -10
-27 -15 -450 -23 -614 -11 -151 11 -211 20 -370 52 -70 14 -116 26 -250 63
-84 23 -122 16 -159 -29 -44 -52 -28 -143 32 -172 26 -13 229 -71 282 -81 14
-2 45 -9 70 -15 60 -13 237 -40 330 -48 154 -15 605 -7 722 12 13 2 41 6 63 9
434 63 825 213 1127 434 94 68 119 108 104 168 -12 46 -62 84 -110 84 -35 0
-57 -12 -151 -78z"/>
<path d="M1082 1057 c-51 -29 -72 -97 -47 -151 16 -34 138 -116 211 -141 88
-30 169 42 149 134 -9 43 -30 61 -131 119 -95 54 -138 63 -182 39z"/>
</g>
</svg>
